ffmpeg version N-82167-g5e96558 Copyright (c) 2000-2016 the FFmpeg developers
  built with gcc 5.4.0 (Ubuntu 5.4.0-6ubuntu1~16.04.2) 20160609
  configuration: --prefix=/root/ffmpeg_build --pkg-config-flags=--static --extra-cflags=-I/root/ffmpeg_build/include --extra-ldflags=-L/root/ffmpeg_build/lib --bindir=/root/bin --enable-gpl --enable-libass --enable-libfdk-aac --enable-libfreetype --enable-libmp3lame --enable-libopus --enable-libtheora --enable-libvorbis --enable-libx264 --enable-libx265 --enable-nonfree
  libavutil      55. 35.100 / 55. 35.100
  libavcodec     57. 65.100 / 57. 65.100
  libavformat    57. 57.100 / 57. 57.100
  libavdevice    57.  2.100 / 57.  2.100
  libavfilter     6. 66.100 /  6. 66.100
  libswscale      4.  3.100 /  4.  3.100
  libswresample   2.  4.100 /  2.  4.100
  libpostproc    54.  2.100 / 54.  2.100
Input #0, matroska,webm, from '/media/yubikiri/bot/queue/3AnimePahe_Detective_Conan_-_038_720p_Fansub.mkv':
  Metadata:
    title           : 3|Text||0|0
    ENCODER         : Lavf57.57.100
  Duration: 00:24:28.22, start: 0.000000, bitrate: 908 kb/s
    Stream #0:0: Video: mpeg4 (Advanced Simple Profile), yuv420p, 640x480 [SAR 1:1 DAR 4:3], 23.98 fps, 23.98 tbr, 1k tbn, 23.98 tbc (default)
    Metadata:
      DURATION        : 00:24:28.217000000
    Stream #0:1: Audio: mp3, 48000 Hz, stereo, s16p, 128 kb/s (default)
    Metadata:
      DURATION        : 00:24:28.176000000
[libx264 @ 0x3a0a620] using SAR=1/1
[libx264 @ 0x3a0a620] using cpu capabilities: MMX2 SSE2Fast SSSE3 SSE4.2 AVX FMA3 AVX2 LZCNT BMI2
[libx264 @ 0x3a0a620] profile High, level 3.1
[libx264 @ 0x3a0a620] 264 - core 148 r2643 5c65704 - H.264/MPEG-4 AVC codec - Copyleft 2003-2015 - http://www.videolan.org/x264.html - options: cabac=1 ref=8 deblock=1:1:1 analyse=0x3:0x133 me=umh subme=7 psy=1 psy_rd=0.00:0.00 mixed_ref=1 me_range=8 chroma_me=1 trellis=0 8x8dct=1 cqm=0 deadzone=21,11 fast_pskip=1 chroma_qp_offset=0 threads=8 lookahead_threads=2 sliced_threads=0 nr=0 decimate=1 interlaced=0 bluray_compat=0 constrained_intra=0 bframes=3 b_pyramid=2 b_adapt=2 b_bias=0 direct=1 weightb=1 open_gop=0 weightp=2 keyint=240 keyint_min=24 scenecut=40 intra_refresh=0 rc_lookahead=60 rc=crf mbtree=1 crf=27.0 qcomp=0.60 qpmin=0 qpmax=69 qpstep=4 ip_ratio=1.40 aq=1:1.00
[libfdk_aac @ 0x3a07fc0] Note, the VBR setting is unsupported and only works with some parameter combinations
Output #0, mp4, to '/media/yubikiri/bot/queue/3AnimePahe_Detective_Conan_-_038_720p_Fansub.mkv_encoded.mp4':
  Metadata:
    encoder         : Lavf57.57.100
    Stream #0:0: Video: h264 (libx264) ([33][0][0][0] / 0x0021), yuv420p, 640x480 [SAR 1:1 DAR 4:3], q=-1--1, 23.98 fps, 24k tbn, 23.98 tbc (default)
    Metadata:
      encoder         : Lavc57.65.100 libx264
    Side data:
      cpb: bitrate max/min/avg: 0/0/0 buffer size: 0 vbv_delay: -1
    Stream #0:1: Audio: aac (libfdk_aac) (HE-AACv2) ([64][0][0][0] / 0x0040), 48000 Hz, stereo, s16, 48 kb/s (default)
    Metadata:
      encoder         : Lavc57.65.100 libfdk_aac
Stream mapping:
  Stream #0:0 -> #0:0 (mpeg4 (native) -> h264 (libx264))
  Stream #0:1 -> #0:1 (mp3 (native) -> aac (libfdk_aac))
Press [q] to stop, [?] for help
frame=  128 fps=0.0 q=32.0 size=     104kB time=00:00:05.48 bitrate= 155.2kbits/s dup=1 drop=0 speed=  11x    frame=  189 fps=189 q=32.0 size=     259kB time=00:00:08.04 bitrate= 263.3kbits/s dup=1 drop=0 speed=8.04x    frame=  332 fps=219 q=32.0 size=     429kB time=00:00:14.01 bitrate= 250.4kbits/s dup=1 drop=0 speed=9.24x    frame=  386 fps=166 q=32.0 size=     510kB time=00:00:16.23 bitrate= 257.5kbits/s dup=1 drop=0 speed=6.98x    frame=  440 fps=156 q=32.0 size=     627kB time=00:00:18.49 bitrate= 277.7kbits/s dup=1 drop=0 speed=6.54x    frame=  496 fps=149 q=32.0 size=     807kB time=00:00:20.84 bitrate= 317.3kbits/s dup=1 drop=0 speed=6.25x    frame=  575 fps=149 q=32.0 size=     966kB time=00:00:24.12 bitrate= 327.9kbits/s dup=1 drop=0 speed=6.27x    frame=  711 fps=164 q=29.0 size=    1116kB time=00:00:29.80 bitrate= 306.8kbits/s dup=1 drop=0 speed=6.86x    frame=  781 fps=161 q=32.0 size=    1317kB time=00:00:32.74 bitrate= 329.4kbits/s dup=1 drop=0 speed=6.74x    frame=  880 fps=164 q=32.0 size=    1484kB time=00:00:36.84 bitrate= 329.9kbits/s dup=1 drop=0 speed=6.88x    frame=  963 fps=164 q=32.0 size=    1642kB time=00:00:40.29 bitrate= 333.8kbits/s dup=1 drop=0 speed=6.87x    frame= 1031 fps=161 q=32.0 size=    1768kB time=00:00:43.15 bitrate= 335.6kbits/s dup=1 drop=0 speed=6.74x    frame= 1141 fps=165 q=32.0 size=    1947kB time=00:00:47.76 bitrate= 334.0kbits/s dup=1 drop=0 speed= 6.9x    frame= 1251 fps=169 q=32.0 size=    2132kB time=00:00:52.33 bitrate= 333.7kbits/s dup=1 drop=0 speed=7.05x    frame= 1309 fps=165 q=32.0 size=    2272kB time=00:00:54.76 bitrate= 339.8kbits/s dup=1 drop=0 speed= 6.9x    frame= 1368 fps=162 q=32.0 size=    2460kB time=00:00:57.19 bitrate= 352.3kbits/s dup=1 drop=0 speed=6.77x    frame= 1448 fps=162 q=32.0 size=    2616kB time=00:01:00.56 bitrate= 353.9kbits/s dup=1 drop=0 speed=6.76x    frame= 1515 fps=159 q=32.0 size=    2784kB time=00:01:03.33 bitrate= 360.0kbits/s dup=1 drop=0 speed=6.67x    frame= 1604 fps=160 q=32.0 size=    2917kB time=00:01:07.05 bitrate= 356.3kbits/s dup=1 drop=0 speed= 6.7x    frame= 1680 fps=160 q=32.0 size=    3124kB time=00:01:10.20 bitrate= 364.5kbits/s dup=1 drop=0 speed=6.68x    frame= 1759 fps=160 q=32.0 size=    3280kB time=00:01:13.53 bitrate= 365.4kbits/s dup=1 drop=0 speed=6.68x    frame= 1821 fps=158 q=32.0 size=    3460kB time=00:01:16.09 bitrate= 372.5kbits/s dup=1 drop=0 speed= 6.6x    frame= 1893 fps=157 q=32.0 size=    3633kB time=00:01:19.08 bitrate= 376.4kbits/s dup=1 drop=0 speed=6.56x    frame= 1958 fps=156 q=32.0 size=    3751kB time=00:01:21.81 bitrate= 375.6kbits/s dup=1 drop=0 speed=6.52x    frame= 2021 fps=155 q=32.0 size=    3884kB time=00:01:24.45 bitrate= 376.7kbits/s dup=1 drop=0 speed=6.47x    frame= 2089 fps=154 q=32.0 size=    4003kB time=00:01:27.27 bitrate= 375.8kbits/s dup=1 drop=0 speed=6.43x    frame= 2166 fps=154 q=32.0 size=    4132kB time=00:01:30.51 bitrate= 373.9kbits/s dup=1 drop=0 speed=6.43x    frame= 2294 fps=157 q=32.0 size=    4284kB time=00:01:35.85 bitrate= 366.2kbits/s dup=1 drop=0 speed=6.57x    frame= 2429 fps=161 q=32.0 size=    4383kB time=00:01:41.48 bitrate= 353.8kbits/s dup=1 drop=0 speed=6.73x    frame= 2510 fps=161 q=32.0 size=    4525kB time=00:01:44.85 bitrate= 353.5kbits/s dup=1 drop=0 speed=6.73x    frame= 2618 fps=162 q=32.0 size=    4652kB time=00:01:49.33 bitrate= 348.5kbits/s dup=1 drop=0 speed=6.78x    frame= 2774 fps=167 q=32.0 size=    4838kB time=00:01:55.86 bitrate= 342.1kbits/s dup=1 drop=0 speed=6.97x    frame= 2913 fps=170 q=32.0 size=    4977kB time=00:02:01.66 bitrate= 335.1kbits/s dup=1 drop=0 speed= 7.1x    frame= 3062 fps=174 q=32.0 size=    5094kB time=00:02:07.85 bitrate= 326.4kbits/s dup=1 drop=0 speed=7.25x    frame= 3225 fps=178 q=32.0 size=    5226kB time=00:02:14.67 bitrate= 317.8kbits/s dup=1 drop=0 speed=7.43x    frame= 3344 fps=180 q=32.0 size=    5346kB time=00:02:19.62 bitrate= 313.6kbits/s dup=1 drop=0 speed= 7.5x    frame= 3433 fps=179 q=32.0 size=    5441kB time=00:02:23.33 bitrate= 310.9kbits/s dup=1 drop=0 speed=7.49x    frame= 3527 fps=180 q=32.0 size=    5528kB time=00:02:27.26 bitrate= 307.5kbits/s dup=1 drop=0 speed= 7.5x    frame= 3610 fps=179 q=32.0 size=    5622kB time=00:02:30.72 bitrate= 305.6kbits/s dup=1 drop=0 speed=7.49x    frame= 3678 fps=178 q=32.0 size=    5672kB time=00:02:33.53 bitrate= 302.6kbits/s dup=1 drop=0 speed=7.44x    frame= 3722 fps=176 q=32.0 size=    5761kB time=00:02:35.41 bitrate= 303.6kbits/s dup=1 drop=0 speed=7.35x    frame= 3750 fps=173 q=32.0 size=    5854kB time=00:02:36.56 bitrate= 306.3kbits/s dup=1 drop=0 speed=7.23x    frame= 3797 fps=171 q=32.0 size=    5925kB time=00:02:38.52 bitrate= 306.2kbits/s dup=1 drop=0 speed=7.15x    frame= 3843 fps=170 q=32.0 size=    6027kB time=00:02:40.44 bitrate= 307.7kbits/s dup=1 drop=0 speed=7.08x    frame= 3911 fps=169 q=32.0 size=    6105kB time=00:02:43.26 bitrate= 306.3kbits/s dup=1 drop=0 speed=7.04x    frame= 4003 fps=169 q=32.0 size=    6188kB time=00:02:47.10 bitrate= 303.3kbits/s dup=1 drop=0 speed=7.06x    frame= 4077 fps=169 q=32.0 size=    6278kB time=00:02:50.21 bitrate= 302.1kbits/s dup=1 drop=0 speed=7.04x    frame= 4128 fps=167 q=32.0 size=    6386kB time=00:02:52.31 bitrate= 303.6kbits/s dup=1 drop=0 speed=6.98x    frame= 4175 fps=166 q=32.0 size=    6503kB time=00:02:54.27 bitrate= 305.7kbits/s dup=1 drop=0 speed=6.92x    frame= 4217 fps=164 q=32.0 size=    6595kB time=00:02:56.02 bitrate= 306.9kbits/s dup=1 drop=0 speed=6.85x    frame= 4285 fps=164 q=32.0 size=    6712kB time=00:02:58.88 bitrate= 307.4kbits/s dup=1 drop=0 speed=6.83x    frame= 4355 fps=163 q=32.0 size=    6799kB time=00:03:01.78 bitrate= 306.4kbits/s dup=1 drop=0 speed=6.81x    frame= 4416 fps=162 q=32.0 size=    6913kB time=00:03:04.38 bitrate= 307.1kbits/s dup=1 drop=0 speed=6.78x    frame= 4470 fps=161 q=32.0 size=    7011kB time=00:03:06.60 bitrate= 307.8kbits/s dup=1 drop=0 speed=6.74x    frame= 4527 fps=160 q=32.0 size=    7094kB time=00:03:08.99 bitrate= 307.5kbits/s dup=1 drop=0 speed= 6.7x    frame= 4579 fps=159 q=32.0 size=    7194kB time=00:03:11.12 bitrate= 308.4kbits/s dup=1 drop=0 speed=6.65x    frame= 4667 fps=160 q=32.0 size=    7263kB time=00:03:14.79 bitrate= 305.4kbits/s dup=1 drop=0 speed=6.67x    frame= 4745 fps=160 q=32.0 size=    7362kB time=00:03:18.08 bitrate= 304.5kbits/s dup=1 drop=0 speed=6.66x    frame= 4799 fps=159 q=32.0 size=    7496kB time=00:03:20.34 bitrate= 306.5kbits/s dup=1 drop=0 speed=6.63x    frame= 4902 fps=160 q=32.0 size=    7592kB time=00:03:24.60 bitrate= 304.0kbits/s dup=1 drop=0 speed=6.66x    frame= 4943 fps=158 q=32.0 size=    7649kB time=00:03:26.31 bitrate= 303.7kbits/s dup=1 drop=0 speed=6.61x    frame= 5012 fps=158 q=32.0 size=    7769kB time=00:03:29.21 bitrate= 304.2kbits/s dup=1 drop=0 speed=6.58x    frame= 5086 fps=158 q=32.0 size=    7898kB time=00:03:32.28 bitrate= 304.8kbits/s dup=1 drop=0 speed=6.58x    frame= 5177 fps=158 q=32.0 size=    7973kB time=00:03:36.08 bitrate= 302.3kbits/s dup=1 drop=0 speed=6.59x    frame= 5251 fps=158 q=32.0 size=    8135kB time=00:03:39.15 bitrate= 304.1kbits/s dup=1 drop=0 speed=6.58x    frame= 5335 fps=158 q=32.0 size=    8240kB time=00:03:42.65 bitrate= 303.2kbits/s dup=1 drop=0 speed=6.59x    frame= 5431 fps=158 q=32.0 size=    8322kB time=00:03:46.66 bitrate= 300.8kbits/s dup=1 drop=0 speed=6.61x    frame= 5478 fps=157 q=32.0 size=    8418kB time=00:03:48.63 bitrate= 301.6kbits/s dup=1 drop=0 speed=6.57x    frame= 5527 fps=157 q=32.0 size=    8498kB time=00:03:50.67 bitrate= 301.8kbits/s dup=1 drop=0 speed=6.53x    frame= 5586 fps=156 q=32.0 size=    8599kB time=00:03:53.15 bitrate= 302.1kbits/s dup=1 drop=0 speed=6.51x    frame= 5661 fps=156 q=32.0 size=    8653kB time=00:03:56.26 bitrate= 300.0kbits/s dup=1 drop=0 speed= 6.5x    frame= 5715 fps=155 q=32.0 size=    8769kB time=00:03:58.52 bitrate= 301.2kbits/s dup=1 drop=0 speed=6.48x    frame= 5778 fps=155 q=32.0 size=    8861kB time=00:04:01.17 bitrate= 301.0kbits/s dup=1 drop=0 speed=6.46x    frame= 5834 fps=154 q=32.0 size=    8965kB time=00:04:03.47 bitrate= 301.6kbits/s dup=1 drop=0 speed=6.44x    frame= 5881 fps=153 q=32.0 size=    9085kB time=00:04:05.44 bitrate= 303.2kbits/s dup=1 drop=0 speed= 6.4x    frame= 5936 fps=153 q=32.0 size=    9190kB time=00:04:07.74 bitrate= 303.9kbits/s dup=1 drop=0 speed=6.38x    frame= 5988 fps=152 q=32.0 size=    9284kB time=00:04:09.92 bitrate= 304.3kbits/s dup=1 drop=0 speed=6.35x    frame= 6034 fps=151 q=32.0 size=    9385kB time=00:04:11.84 bitrate= 305.3kbits/s dup=1 drop=0 speed=6.32x    frame= 6075 fps=150 q=32.0 size=    9444kB time=00:04:13.54 bitrate= 305.1kbits/s dup=1 drop=0 speed=6.28x    frame= 6114 fps=150 q=32.0 size=    9559kB time=00:04:15.16 bitrate= 306.9kbits/s dup=1 drop=0 speed=6.24x    frame= 6169 fps=149 q=32.0 size=    9654kB time=00:04:17.43 bitrate= 307.2kbits/s dup=1 drop=0 speed=6.21x    frame= 6204 fps=148 q=32.0 size=    9731kB time=00:04:18.92 bitrate= 307.9kbits/s dup=1 drop=0 speed=6.17x    frame= 6278 fps=148 q=32.0 size=    9860kB time=00:04:21.99 bitrate= 308.3kbits/s dup=1 drop=0 speed=6.17x    frame= 6338 fps=148 q=32.0 size=    9967kB time=00:04:24.51 bitrate= 308.7kbits/s dup=1 drop=0 speed=6.16x    frame= 6395 fps=147 q=32.0 size=   10071kB time=00:04:26.85 bitrate= 309.1kbits/s dup=1 drop=0 speed=6.13x    frame= 6432 fps=146 q=32.0 size=   10164kB time=00:04:28.39 bitrate= 310.2kbits/s dup=1 drop=0 speed= 6.1x    frame= 6480 fps=145 q=32.0 size=   10217kB time=00:04:30.44 bitrate= 309.5kbits/s dup=1 drop=0 speed=6.07x    frame= 6538 fps=145 q=32.0 size=   10304kB time=00:04:32.83 bitrate= 309.4kbits/s dup=1 drop=0 speed=6.06x    frame= 6609 fps=145 q=32.0 size=   10396kB time=00:04:35.81 bitrate= 308.8kbits/s dup=1 drop=0 speed=6.06x    frame= 6706 fps=146 q=32.0 size=   10504kB time=00:04:39.87 bitrate= 307.4kbits/s dup=1 drop=0 speed=6.08x    frame= 6817 fps=146 q=32.0 size=   10606kB time=00:04:44.48 bitrate= 305.4kbits/s dup=1 drop=0 speed=6.11x    frame= 6922 fps=147 q=32.0 size=   10662kB time=00:04:48.87 bitrate= 302.4kbits/s dup=1 drop=0 speed=6.14x    frame= 7015 fps=148 q=32.0 size=   10755kB time=00:04:52.75 bitrate= 301.0kbits/s dup=1 drop=0 speed=6.16x    frame= 7123 fps=148 q=32.0 size=   10857kB time=00:04:57.28 bitrate= 299.2kbits/s dup=1 drop=0 speed=6.19x    frame= 7233 fps=149 q=32.0 size=   10949kB time=00:05:01.80 bitrate= 297.2kbits/s dup=1 drop=0 speed=6.22x    frame= 7332 fps=149 q=32.0 size=   11049kB time=00:05:05.98 bitrate= 295.8kbits/s dup=1 drop=0 speed=6.24x    frame= 7440 fps=150 q=32.0 size=   11134kB time=00:05:10.50 bitrate= 293.7kbits/s dup=1 drop=0 speed=6.27x    frame= 7536 fps=150 q=32.0 size=   11219kB time=00:05:14.47 bitrate= 292.2kbits/s dup=1 drop=0 speed=6.28x    frame= 7644 fps=151 q=32.0 size=   11315kB time=00:05:18.99 bitrate= 290.6kbits/s dup=1 drop=0 speed= 6.3x    frame= 7720 fps=151 q=32.0 size=   11367kB time=00:05:22.15 bitrate= 289.0kbits/s dup=1 drop=0 speed= 6.3x    frame= 7771 fps=151 q=32.0 size=   11457kB time=00:05:24.24 bitrate= 289.4kbits/s dup=1 drop=0 speed=6.28x    frame= 7880 fps=151 q=32.0 size=   11534kB time=00:05:28.81 bitrate= 287.4kbits/s dup=1 drop=0 speed=6.31x    frame= 7989 fps=152 q=32.0 size=   11623kB time=00:05:33.37 bitrate= 285.6kbits/s dup=1 drop=0 speed=6.34x    frame= 8066 fps=152 q=32.0 size=   11690kB time=00:05:36.61 bitrate= 284.5kbits/s dup=1 drop=0 speed=6.34x    frame= 8124 fps=152 q=32.0 size=   11758kB time=00:05:39.00 bitrate= 284.1kbits/s dup=1 drop=0 speed=6.32x    frame= 8212 fps=152 q=32.0 size=   11893kB time=00:05:42.67 bitrate= 284.3kbits/s dup=1 drop=0 speed=6.33x    frame= 8312 fps=152 q=32.0 size=   11978kB time=00:05:46.85 bitrate= 282.9kbits/s dup=1 drop=0 speed=6.35x    frame= 8428 fps=153 q=32.0 size=   12083kB time=00:05:51.68 bitrate= 281.5kbits/s dup=1 drop=0 speed=6.38x    frame= 8543 fps=154 q=32.0 size=   12147kB time=00:05:56.45 bitrate= 279.2kbits/s dup=1 drop=0 speed=6.41x    frame= 8626 fps=154 q=32.0 size=   12251kB time=00:05:59.91 bitrate= 278.8kbits/s dup=1 drop=0 speed=6.41x    frame= 8722 fps=154 q=32.0 size=   12325kB time=00:06:03.92 bitrate= 277.4kbits/s dup=1 drop=0 speed=6.43x    frame= 8803 fps=154 q=32.0 size=   12439kB time=00:06:07.33 bitrate= 277.4kbits/s dup=1 drop=0 speed=6.43x    frame= 8861 fps=154 q=32.0 size=   12520kB time=00:06:09.72 bitrate= 277.4kbits/s dup=1 drop=0 speed=6.42x    frame= 8935 fps=154 q=32.0 size=   12659kB time=00:06:12.80 bitrate= 278.2kbits/s dup=1 drop=0 speed=6.41x    frame= 9046 fps=154 q=32.0 size=   12741kB time=00:06:17.45 bitrate= 276.5kbits/s dup=1 drop=0 speed=6.44x    frame= 9130 fps=154 q=32.0 size=   12825kB time=00:06:20.95 bitrate= 275.8kbits/s dup=1 drop=0 speed=6.44x    frame= 9247 fps=155 q=32.0 size=   12902kB time=00:06:25.85 bitrate= 273.9kbits/s dup=1 drop=0 speed=6.47x    frame= 9335 fps=155 q=32.0 size=   13029kB time=00:06:29.48 bitrate= 274.0kbits/s dup=1 drop=0 speed=6.46x    frame= 9413 fps=155 q=32.0 size=   13094kB time=00:06:32.76 bitrate= 273.1kbits/s dup=1 drop=0 speed=6.46x    frame= 9458 fps=154 q=32.0 size=   13195kB time=00:06:34.64 bitrate= 273.9kbits/s dup=1 drop=0 speed=6.44x    frame= 9522 fps=154 q=32.0 size=   13256kB time=00:06:37.29 bitrate= 273.3kbits/s dup=1 drop=0 speed=6.43x    frame= 9572 fps=154 q=32.0 size=   13366kB time=00:06:39.38 bitrate= 274.2kbits/s dup=1 drop=0 speed=6.41x    frame= 9629 fps=153 q=32.0 size=   13494kB time=00:06:41.77 bitrate= 275.1kbits/s dup=1 drop=0 speed= 6.4x    frame= 9718 fps=154 q=32.0 size=   13588kB time=00:06:45.48 bitrate= 274.5kbits/s dup=1 drop=0 speed=6.41x    frame= 9785 fps=153 q=32.0 size=   13696kB time=00:06:48.25 bitrate= 274.8kbits/s dup=1 drop=0 speed= 6.4x    frame= 9827 fps=153 q=32.0 size=   13763kB time=00:06:50.04 bitrate= 275.0kbits/s dup=1 drop=0 speed=6.38x    frame= 9878 fps=152 q=32.0 size=   13832kB time=00:06:52.13 bitrate= 274.9kbits/s dup=1 drop=0 speed=6.36x    frame= 9952 fps=152 q=32.0 size=   13958kB time=00:06:55.25 bitrate= 275.4kbits/s dup=1 drop=0 speed=6.36x    frame=10009 fps=152 q=32.0 size=   14075kB time=00:06:57.64 bitrate= 276.1kbits/s dup=1 drop=0 speed=6.34x    frame=10058 fps=152 q=32.0 size=   14181kB time=00:06:59.64 bitrate= 276.8kbits/s dup=1 drop=0 speed=6.32x    frame=10101 fps=151 q=32.0 size=   14300kB time=00:07:01.48 bitrate= 277.9kbits/s dup=1 drop=0 speed= 6.3x    frame=10140 fps=150 q=32.0 size=   14419kB time=00:07:03.06 bitrate= 279.2kbits/s dup=1 drop=0 speed=6.28x    frame=10212 fps=150 q=32.0 size=   14542kB time=00:07:06.09 bitrate= 279.6kbits/s dup=1 drop=0 speed=6.27x    frame=10267 fps=150 q=32.0 size=   14629kB time=00:07:08.39 bitrate= 279.7kbits/s dup=1 drop=0 speed=6.26x    frame=10373 fps=151 q=32.0 size=   14732kB time=00:07:12.79 bitrate= 278.9kbits/s dup=1 drop=0 speed=6.28x    frame=10463 fps=151 q=32.0 size=   14787kB time=00:07:16.54 bitrate= 277.5kbits/s dup=1 drop=0 speed=6.29x    frame=10576 fps=151 q=32.0 size=   14891kB time=00:07:21.28 bitrate= 276.4kbits/s dup=1 drop=0 speed=6.31x    frame=10675 fps=152 q=32.0 size=   14959kB time=00:07:25.37 bitrate= 275.2kbits/s dup=1 drop=0 speed=6.32x    frame=10794 fps=152 q=32.0 size=   15058kB time=00:07:30.36 bitrate= 273.9kbits/s dup=1 drop=0 speed=6.35x    frame=10913 fps=153 q=32.0 size=   15144kB time=00:07:35.31 bitrate= 272.5kbits/s dup=1 drop=0 speed=6.37x    frame=11003 fps=153 q=32.0 size=   15268kB time=00:07:39.07 bitrate= 272.4kbits/s dup=1 drop=0 speed=6.38x    frame=11081 fps=153 q=32.0 size=   15327kB time=00:07:42.31 bitrate= 271.6kbits/s dup=1 drop=0 speed=6.38x    frame=11150 fps=153 q=32.0 size=   15386kB time=00:07:45.21 bitrate= 270.9kbits/s dup=1 drop=0 speed=6.38x    frame=11223 fps=153 q=32.0 size=   15495kB time=00:07:48.24 bitrate= 271.1kbits/s dup=1 drop=0 speed=6.37x    frame=11355 fps=154 q=32.0 size=   15557kB time=00:07:53.75 bitrate= 269.0kbits/s dup=1 drop=0 speed= 6.4x    frame=11450 fps=154 q=32.0 size=   15634kB time=00:07:57.71 bitrate= 268.1kbits/s dup=1 drop=0 speed=6.41x    frame=11516 fps=154 q=32.0 size=   15693kB time=00:08:00.49 bitrate= 267.5kbits/s dup=1 drop=0 speed=6.41x    frame=11585 fps=153 q=32.0 size=   15778kB time=00:08:03.35 bitrate= 267.4kbits/s dup=1 drop=0 speed= 6.4x    frame=11693 fps=154 q=32.0 size=   15882kB time=00:08:07.83 bitrate= 266.7kbits/s dup=1 drop=0 speed=6.42x    frame=11810 fps=154 q=32.0 size=   15976kB time=00:08:12.73 bitrate= 265.6kbits/s dup=1 drop=0 speed=6.44x    frame=11900 fps=155 q=32.0 size=   16041kB time=00:08:16.49 bitrate= 264.7kbits/s dup=1 drop=0 speed=6.45x    frame=11965 fps=154 q=32.0 size=   16121kB time=00:08:19.17 bitrate= 264.6kbits/s dup=1 drop=0 speed=6.44x    frame=12059 fps=155 q=32.0 size=   16241kB time=00:08:23.10 bitrate= 264.4kbits/s dup=1 drop=0 speed=6.45x    frame=12151 fps=155 q=32.0 size=   16317kB time=00:08:26.94 bitrate= 263.7kbits/s dup=1 drop=0 speed=6.46x    frame=12247 fps=155 q=32.0 size=   16412kB time=00:08:30.95 bitrate= 263.1kbits/s dup=1 drop=0 speed=6.47x    frame=12353 fps=155 q=32.0 size=   16471kB time=00:08:35.35 bitrate= 261.8kbits/s dup=1 drop=0 speed=6.48x    frame=12436 fps=155 q=32.0 size=   16558kB time=00:08:38.84 bitrate= 261.4kbits/s dup=1 drop=0 speed=6.48x    frame=12508 fps=155 q=32.0 size=   16640kB time=00:08:41.83 bitrate= 261.2kbits/s dup=1 drop=0 speed=6.48x    frame=12568 fps=155 q=32.0 size=   16711kB time=00:08:44.35 bitrate= 261.1kbits/s dup=1 drop=0 speed=6.47x    frame=12626 fps=155 q=32.0 size=   16785kB time=00:08:46.78 bitrate= 261.0kbits/s dup=1 drop=0 speed=6.46x    frame=12695 fps=155 q=32.0 size=   16877kB time=00:08:49.64 bitrate= 261.0kbits/s dup=1 drop=0 speed=6.45x    frame=12811 fps=155 q=32.0 size=   16971kB time=00:08:54.46 bitrate= 260.1kbits/s dup=1 drop=0 speed=6.47x    frame=12920 fps=156 q=32.0 size=   17040kB time=00:08:59.03 bitrate= 259.0kbits/s dup=1 drop=0 speed=6.49x    frame=13011 fps=156 q=32.0 size=   17117kB time=00:09:02.82 bitrate= 258.3kbits/s dup=1 drop=0 speed= 6.5x    frame=13100 fps=156 q=32.0 size=   17209kB time=00:09:06.53 bitrate= 257.9kbits/s dup=1 drop=0 speed= 6.5x    frame=13184 fps=156 q=32.0 size=   17303kB time=00:09:10.03 bitrate= 257.7kbits/s dup=1 drop=0 speed= 6.5x    frame=13270 fps=156 q=32.0 size=   17366kB time=00:09:13.62 bitrate= 257.0kbits/s dup=1 drop=0 speed=6.51x    frame=13338 fps=156 q=32.0 size=   17426kB time=00:09:16.48 bitrate= 256.5kbits/s dup=1 drop=0 speed= 6.5x    frame=13371 fps=155 q=32.0 size=   17530kB time=00:09:17.84 bitrate= 257.4kbits/s dup=1 drop=0 speed=6.47x    frame=13429 fps=155 q=32.0 size=   17624kB time=00:09:20.23 bitrate= 257.7kbits/s dup=1 drop=0 speed=6.46x    frame=13480 fps=155 q=32.0 size=   17685kB time=00:09:22.41 bitrate= 257.6kbits/s dup=1 drop=0 speed=6.45x    frame=13526 fps=154 q=32.0 size=   17796kB time=00:09:24.33 bitrate= 258.3kbits/s dup=1 drop=0 speed=6.44x    frame=13576 fps=154 q=32.0 size=   17883kB time=00:09:26.37 bitrate= 258.7kbits/s dup=1 drop=0 speed=6.42x    frame=13629 fps=154 q=32.0 size=   17972kB time=00:09:28.59 bitrate= 258.9kbits/s dup=1 drop=0 speed=6.41x    frame=13727 fps=154 q=32.0 size=   18080kB time=00:09:32.69 bitrate= 258.6kbits/s dup=1 drop=0 speed=6.42x    frame=13843 fps=154 q=32.0 size=   18180kB time=00:09:37.51 bitrate= 257.9kbits/s dup=1 drop=0 speed=6.44x    frame=13953 fps=155 q=32.0 size=   18251kB time=00:09:42.12 bitrate= 256.8kbits/s dup=1 drop=0 speed=6.45x    frame=14060 fps=155 q=32.0 size=   18373kB time=00:09:46.56 bitrate= 256.6kbits/s dup=1 drop=0 speed=6.47x    frame=14132 fps=155 q=32.0 size=   18459kB time=00:09:49.59 bitrate= 256.5kbits/s dup=1 drop=0 speed=6.47x    frame=14197 fps=155 q=32.0 size=   18509kB time=00:09:52.27 bitrate= 256.0kbits/s dup=1 drop=0 speed=6.46x    frame=14258 fps=155 q=32.0 size=   18591kB time=00:09:54.83 bitrate= 256.0kbits/s dup=1 drop=0 speed=6.45x    frame=14337 fps=155 q=32.0 size=   18664kB time=00:09:58.12 bitrate= 255.6kbits/s dup=1 drop=0 speed=6.45x    frame=14412 fps=155 q=32.0 size=   18781kB time=00:10:01.23 bitrate= 255.9kbits/s dup=1 drop=0 speed=6.45x    frame=14535 fps=155 q=32.0 size=   18839kB time=00:10:06.35 bitrate= 254.5kbits/s dup=1 drop=0 speed=6.47x    frame=14647 fps=155 q=32.0 size=   18941kB time=00:10:11.05 bitrate= 253.9kbits/s dup=1 drop=0 speed=6.49x    frame=14755 fps=156 q=32.0 size=   19024kB time=00:10:15.57 bitrate= 253.2kbits/s dup=1 drop=0 speed= 6.5x    frame=14874 fps=156 q=32.0 size=   19123kB time=00:10:20.52 bitrate= 252.5kbits/s dup=1 drop=0 speed=6.51x    frame=14957 fps=156 q=32.0 size=   19191kB time=00:10:23.97 bitrate= 251.9kbits/s dup=1 drop=0 speed=6.51x    frame=15049 fps=156 q=32.0 size=   19295kB time=00:10:27.81 bitrate= 251.8kbits/s dup=1 drop=0 speed=6.52x    frame=15135 fps=156 q=32.0 size=   19375kB time=00:10:31.40 bitrate= 251.4kbits/s dup=1 drop=0 speed=6.52x    frame=15225 fps=156 q=32.0 size=   19500kB time=00:10:35.15 bitrate= 251.5kbits/s dup=1 drop=0 speed=6.52x    frame=15300 fps=156 q=32.0 size=   19556kB time=00:10:38.31 bitrate= 251.0kbits/s dup=1 drop=0 speed=6.52x    frame=15360 fps=156 q=32.0 size=   19665kB time=00:10:40.79 bitrate= 251.4kbits/s dup=1 drop=0 speed=6.51x    frame=15434 fps=156 q=32.0 size=   19763kB time=00:10:43.90 bitrate= 251.4kbits/s dup=1 drop=0 speed=6.51x    frame=15517 fps=156 q=32.0 size=   19896kB time=00:10:47.36 bitrate= 251.8kbits/s dup=1 drop=0 speed=6.51x    frame=15604 fps=156 q=32.0 size=   19989kB time=00:10:50.98 bitrate= 251.5kbits/s dup=1 drop=0 speed=6.51x    frame=15708 fps=156 q=32.0 size=   20095kB time=00:10:55.29 bitrate= 251.2kbits/s dup=1 drop=0 speed=6.52x    frame=15799 fps=157 q=32.0 size=   20183kB time=00:10:59.09 bitrate= 250.9kbits/s dup=1 drop=0 speed=6.53x    frame=15862 fps=156 q=32.0 size=   20307kB time=00:11:01.69 bitrate= 251.4kbits/s dup=1 drop=0 speed=6.52x    frame=15905 fps=156 q=32.0 size=   20403kB time=00:11:03.53 bitrate= 251.9kbits/s dup=1 drop=0 speed=6.51x    frame=15952 fps=156 q=32.0 size=   20511kB time=00:11:05.49 bitrate= 252.5kbits/s dup=1 drop=0 speed= 6.5x    frame=16018 fps=156 q=32.0 size=   20647kB time=00:11:08.22 bitrate= 253.1kbits/s dup=1 drop=0 speed=6.49x    frame=16096 fps=156 q=32.0 size=   20731kB time=00:11:11.51 bitrate= 252.9kbits/s dup=1 drop=0 speed=6.49x    frame=16173 fps=156 q=32.0 size=   20826kB time=00:11:14.71 bitrate= 252.9kbits/s dup=1 drop=0 speed=6.49x    frame=16218 fps=155 q=32.0 size=   20942kB time=00:11:16.58 bitrate= 253.6kbits/s dup=1 drop=0 speed=6.47x    frame=16260 fps=155 q=32.0 size=   21087kB time=00:11:18.37 bitrate= 254.6kbits/s dup=1 drop=0 speed=6.46x    frame=16363 fps=155 q=32.0 size=   21181kB time=00:11:22.64 bitrate= 254.2kbits/s dup=1 drop=0 speed=6.47x    frame=16458 fps=155 q=32.0 size=   21293kB time=00:11:26.57 bitrate= 254.1kbits/s dup=1 drop=0 speed=6.48x    frame=16558 fps=155 q=32.0 size=   21375kB time=00:11:30.75 bitrate= 253.5kbits/s dup=1 drop=0 speed=6.48x    frame=16663 fps=156 q=32.0 size=   21557kB time=00:11:35.14 bitrate= 254.0kbits/s dup=1 drop=0 speed=6.49x    frame=16754 fps=156 q=32.0 size=   21690kB time=00:11:38.94 bitrate= 254.2kbits/s dup=1 drop=0 speed= 6.5x    frame=16846 fps=156 q=32.0 size=   21826kB time=00:11:42.78 bitrate= 254.4kbits/s dup=1 drop=0 speed= 6.5x    frame=16938 fps=156 q=32.0 size=   21993kB time=00:11:46.62 bitrate= 255.0kbits/s dup=1 drop=0 speed=6.51x    frame=17086 fps=157 q=32.0 size=   22180kB time=00:11:52.81 bitrate= 254.9kbits/s dup=1 drop=0 speed=6.54x    frame=17264 fps=158 q=32.0 size=   22278kB time=00:12:00.23 bitrate= 253.4kbits/s dup=1 drop=0 speed=6.57x    frame=17396 fps=158 q=32.0 size=   22432kB time=00:12:05.69 bitrate= 253.2kbits/s dup=1 drop=0 speed=6.59x    frame=17539 fps=159 q=32.0 size=   22592kB time=00:12:11.67 bitrate= 252.9kbits/s dup=1 drop=0 speed=6.62x    frame=17612 fps=159 q=32.0 size=   22781kB time=00:12:14.74 bitrate= 254.0kbits/s dup=1 drop=0 speed=6.61x    frame=17723 fps=159 q=32.0 size=   22934kB time=00:12:19.35 bitrate= 254.1kbits/s dup=1 drop=0 speed=6.63x    frame=17875 fps=159 q=32.0 size=   23058kB time=00:12:25.70 bitrate= 253.3kbits/s dup=1 drop=0 speed=6.65x    frame=17994 fps=160 q=32.0 size=   23181kB time=00:12:30.65 bitrate= 253.0kbits/s dup=1 drop=0 speed=6.67x    frame=18102 fps=160 q=32.0 size=   23303kB time=00:12:35.17 bitrate= 252.8kbits/s dup=1 drop=0 speed=6.68x    frame=18211 fps=160 q=32.0 size=   23491kB time=00:12:39.70 bitrate= 253.3kbits/s dup=1 drop=0 speed=6.69x    frame=18338 fps=161 q=32.0 size=   23688kB time=00:12:44.99 bitrate= 253.7kbits/s dup=1 drop=0 speed= 6.7x    frame=18473 fps=161 q=32.0 size=   23861kB time=00:12:50.62 bitrate= 253.7kbits/s dup=1 drop=0 speed=6.72x    frame=18577 fps=161 q=32.0 size=   24032kB time=00:12:54.97 bitrate= 254.0kbits/s dup=1 drop=0 speed=6.73x    frame=18683 fps=162 q=32.0 size=   24182kB time=00:12:59.41 bitrate= 254.2kbits/s dup=1 drop=0 speed=6.74x    frame=18799 fps=162 q=32.0 size=   24313kB time=00:13:04.23 bitrate= 254.0kbits/s dup=1 drop=0 speed=6.75x    frame=18945 fps=162 q=32.0 size=   24467kB time=00:13:10.33 bitrate= 253.6kbits/s dup=1 drop=0 speed=6.78x    frame=19063 fps=163 q=32.0 size=   24591kB time=00:13:15.24 bitrate= 253.3kbits/s dup=1 drop=0 speed=6.79x    frame=19213 fps=163 q=32.0 size=   24721kB time=00:13:21.51 bitrate= 252.7kbits/s dup=1 drop=0 speed=6.81x    frame=19340 fps=164 q=32.0 size=   24885kB time=00:13:26.80 bitrate= 252.7kbits/s dup=1 drop=0 speed=6.83x    frame=19474 fps=164 q=32.0 size=   25016kB time=00:13:32.39 bitrate= 252.3kbits/s dup=1 drop=0 speed=6.85x    frame=19623 fps=165 q=32.0 size=   25129kB time=00:13:38.58 bitrate= 251.5kbits/s dup=1 drop=0 speed=6.87x    frame=19759 fps=165 q=32.0 size=   25247kB time=00:13:44.29 bitrate= 250.9kbits/s dup=1 drop=0 speed=6.89x    frame=19938 fps=166 q=32.0 size=   25382kB time=00:13:51.72 bitrate= 250.0kbits/s dup=1 drop=0 speed=6.92x    frame=20080 fps=166 q=32.0 size=   25520kB time=00:13:57.65 bitrate= 249.6kbits/s dup=1 drop=0 speed=6.94x    frame=20224 fps=167 q=32.0 size=   25635kB time=00:14:03.67 bitrate= 248.9kbits/s dup=1 drop=0 speed=6.96x    frame=20332 fps=167 q=32.0 size=   25795kB time=00:14:08.19 bitrate= 249.1kbits/s dup=1 drop=0 speed=6.97x    frame=20438 fps=167 q=32.0 size=   25919kB time=00:14:12.58 bitrate= 249.0kbits/s dup=1 drop=0 speed=6.98x    frame=20547 fps=167 q=32.0 size=   26036kB time=00:14:17.15 bitrate= 248.8kbits/s dup=1 drop=0 speed=6.96x    frame=20654 fps=167 q=32.0 size=   26216kB time=00:14:21.59 bitrate= 249.3kbits/s dup=1 drop=0 speed=6.97x    frame=20757 fps=167 q=32.0 size=   26343kB time=00:14:25.89 bitrate= 249.2kbits/s dup=1 drop=0 speed=6.97x    frame=20861 fps=167 q=29.0 size=   26485kB time=00:14:30.25 bitrate= 249.3kbits/s dup=1 drop=0 speed=6.98x    frame=20985 fps=168 q=32.0 size=   26682kB time=00:14:35.41 bitrate= 249.7kbits/s dup=1 drop=0 speed=6.99x    frame=21073 fps=168 q=32.0 size=   26850kB time=00:14:39.08 bitrate= 250.2kbits/s dup=1 drop=0 speed=   7x    frame=21156 fps=168 q=32.0 size=   27000kB time=00:14:42.53 bitrate= 250.6kbits/s dup=1 drop=0 speed=6.99x    frame=21229 fps=168 q=32.0 size=   27183kB time=00:14:45.56 bitrate= 251.5kbits/s dup=1 drop=0 speed=6.99x    frame=21331 fps=168 q=32.0 size=   27283kB time=00:14:49.83 bitrate= 251.2kbits/s dup=1 drop=0 speed=   7x    frame=21444 fps=168 q=32.0 size=   27364kB time=00:14:54.57 bitrate= 250.6kbits/s dup=1 drop=0 speed=7.01x    frame=21564 fps=168 q=32.0 size=   27454kB time=00:14:59.56 bitrate= 250.0kbits/s dup=1 drop=0 speed=7.02x    frame=21674 fps=168 q=32.0 size=   27563kB time=00:15:04.17 bitrate= 249.7kbits/s dup=1 drop=0 speed=7.03x    frame=21771 fps=169 q=32.0 size=   27623kB time=00:15:08.22 bitrate= 249.2kbits/s dup=1 drop=0 speed=7.03x    frame=21895 fps=169 q=32.0 size=   27710kB time=00:15:13.34 bitrate= 248.5kbits/s dup=1 drop=0 speed=7.04x    frame=21964 fps=169 q=32.0 size=   27795kB time=00:15:16.24 bitrate= 248.5kbits/s dup=1 drop=0 speed=7.04x    frame=22031 fps=169 q=32.0 size=   27920kB time=00:15:19.01 bitrate= 248.9kbits/s dup=1 drop=0 speed=7.03x    frame=22086 fps=168 q=32.0 size=   27988kB time=00:15:21.32 bitrate= 248.9kbits/s dup=1 drop=0 speed=7.02x    frame=22138 fps=168 q=32.0 size=   28127kB time=00:15:23.49 bitrate= 249.5kbits/s dup=1 drop=0 speed=7.01x    frame=22220 fps=168 q=32.0 size=   28213kB time=00:15:26.91 bitrate= 249.3kbits/s dup=1 drop=0 speed=7.01x    frame=22314 fps=168 q=32.0 size=   28313kB time=00:15:30.88 bitrate= 249.2kbits/s dup=1 drop=0 speed=7.01x    frame=22391 fps=168 q=32.0 size=   28392kB time=00:15:34.03 bitrate= 249.0kbits/s dup=1 drop=0 speed=7.01x    frame=22478 fps=168 q=32.0 size=   28482kB time=00:15:37.66 bitrate= 248.8kbits/s dup=1 drop=0 speed=7.01x    frame=22526 fps=168 q=32.0 size=   28560kB time=00:15:39.67 bitrate= 249.0kbits/s dup=1 drop=0 speed=   7x    frame=22576 fps=168 q=32.0 size=   28662kB time=00:15:41.76 bitrate= 249.3kbits/s dup=1 drop=0 speed=6.99x    frame=22667 fps=168 q=32.0 size=   28776kB time=00:15:45.55 bitrate= 249.3kbits/s dup=1 drop=0 speed=6.99x    frame=22759 fps=168 q=32.0 size=   28884kB time=00:15:49.39 bitrate= 249.2kbits/s dup=1 drop=0 speed=6.99x    frame=22853 fps=168 q=32.0 size=   28962kB time=00:15:53.32 bitrate= 248.9kbits/s dup=1 drop=0 speed=6.99x    frame=22951 fps=168 q=32.0 size=   29033kB time=00:15:57.41 bitrate= 248.4kbits/s dup=1 drop=0 speed=   7x    frame=23042 fps=168 q=32.0 size=   29139kB time=00:16:01.21 bitrate= 248.3kbits/s dup=1 drop=0 speed=   7x    frame=23121 fps=168 q=32.0 size=   29278kB time=00:16:04.50 bitrate= 248.7kbits/s dup=1 drop=0 speed=   7x    frame=23218 fps=168 q=32.0 size=   29350kB time=00:16:08.55 bitrate= 248.2kbits/s dup=1 drop=0 speed=   7x    frame=23298 fps=168 q=32.0 size=   29441kB time=00:16:11.88 bitrate= 248.2kbits/s dup=1 drop=0 speed=   7x    frame=23405 fps=168 q=32.0 size=   29526kB time=00:16:16.36 bitrate= 247.7kbits/s dup=1 drop=0 speed=7.01x    frame=23462 fps=168 q=32.0 size=   29643kB time=00:16:18.71 bitrate= 248.1kbits/s dup=1 drop=0 speed=   7x    frame=23547 fps=168 q=32.0 size=   29763kB time=00:16:22.25 bitrate= 248.2kbits/s dup=1 drop=0 speed=   7x    frame=23635 fps=168 q=32.0 size=   29837kB time=00:16:25.96 bitrate= 247.9kbits/s dup=1 drop=0 speed=   7x    frame=23686 fps=168 q=32.0 size=   29911kB time=00:16:28.09 bitrate= 248.0kbits/s dup=1 drop=0 speed=6.99x    frame=23749 fps=167 q=32.0 size=   30019kB time=00:16:30.69 bitrate= 248.2kbits/s dup=1 drop=0 speed=6.98x    frame=23834 fps=167 q=32.0 size=   30089kB time=00:16:34.19 bitrate= 247.9kbits/s dup=1 drop=0 speed=6.98x    frame=23907 fps=167 q=32.0 size=   30233kB time=00:16:37.27 bitrate= 248.3kbits/s dup=1 drop=0 speed=6.98x    frame=23966 fps=167 q=32.0 size=   30314kB time=00:16:39.78 bitrate= 248.4kbits/s dup=1 drop=0 speed=6.97x    frame=24057 fps=167 q=32.0 size=   30446kB time=00:16:43.54 bitrate= 248.5kbits/s dup=1 drop=0 speed=6.97x    frame=24142 fps=167 q=32.0 size=   30524kB time=00:16:47.08 bitrate= 248.3kbits/s dup=1 drop=0 speed=6.97x    frame=24241 fps=167 q=32.0 size=   30643kB time=00:16:51.22 bitrate= 248.2kbits/s dup=1 drop=0 speed=6.98x    frame=24346 fps=167 q=32.0 size=   30751kB time=00:16:55.61 bitrate= 248.0kbits/s dup=1 drop=0 speed=6.98x    frame=24442 fps=167 q=32.0 size=   30846kB time=00:16:59.58 bitrate= 247.8kbits/s dup=1 drop=0 speed=6.99x    frame=24507 fps=167 q=32.0 size=   30943kB time=00:17:02.31 bitrate= 247.9kbits/s dup=1 drop=0 speed=6.98x    frame=24612 fps=167 q=32.0 size=   31046kB time=00:17:06.71 bitrate= 247.7kbits/s dup=1 drop=0 speed=6.99x    frame=24706 fps=168 q=32.0 size=   31148kB time=00:17:10.59 bitrate= 247.6kbits/s dup=1 drop=0 speed=6.99x    frame=24775 fps=167 q=32.0 size=   31236kB time=00:17:13.49 bitrate= 247.6kbits/s dup=1 drop=0 speed=6.99x    frame=24865 fps=167 q=32.0 size=   31341kB time=00:17:17.24 bitrate= 247.5kbits/s dup=1 drop=0 speed=6.99x    frame=24956 fps=168 q=32.0 size=   31460kB time=00:17:21.00 bitrate= 247.6kbits/s dup=1 drop=0 speed=6.99x    frame=25037 fps=167 q=32.0 size=   31574kB time=00:17:24.41 bitrate= 247.7kbits/s dup=1 drop=0 speed=6.99x    frame=25115 fps=167 q=32.0 size=   31649kB time=00:17:27.65 bitrate= 247.5kbits/s dup=1 drop=0 speed=6.99x    frame=25182 fps=167 q=32.0 size=   31735kB time=00:17:30.47 bitrate= 247.5kbits/s dup=1 drop=0 speed=6.98x    frame=25235 fps=167 q=32.0 size=   31828kB time=00:17:32.65 bitrate= 247.7kbits/s dup=1 drop=0 speed=6.97x    frame=25275 fps=167 q=32.0 size=   31986kB time=00:17:34.35 bitrate= 248.5kbits/s dup=1 drop=0 speed=6.96x    frame=25342 fps=167 q=32.0 size=   32140kB time=00:17:37.13 bitrate= 249.1kbits/s dup=1 drop=0 speed=6.95x    frame=25441 fps=167 q=32.0 size=   32243kB time=00:17:41.27 bitrate= 248.9kbits/s dup=1 drop=0 speed=6.96x    frame=25550 fps=167 q=32.0 size=   32320kB time=00:17:45.83 bitrate= 248.4kbits/s dup=1 drop=0 speed=6.96x    frame=25609 fps=167 q=29.0 size=   32431kB time=00:17:48.26 bitrate= 248.7kbits/s dup=1 drop=0 speed=6.95x    frame=25720 fps=167 q=32.0 size=   32535kB time=00:17:52.87 bitrate= 248.4kbits/s dup=1 drop=0 speed=6.96x    frame=25831 fps=167 q=32.0 size=   32629kB time=00:17:57.52 bitrate= 248.1kbits/s dup=1 drop=0 speed=6.97x    frame=25931 fps=167 q=32.0 size=   32718kB time=00:18:01.70 bitrate= 247.8kbits/s dup=1 drop=0 speed=6.97x    frame=26005 fps=167 q=32.0 size=   32821kB time=00:18:04.77 bitrate= 247.9kbits/s dup=1 drop=0 speed=6.97x    frame=26099 fps=167 q=32.0 size=   32932kB time=00:18:08.70 bitrate= 247.8kbits/s dup=1 drop=0 speed=6.97x    frame=26206 fps=167 q=32.0 size=   33010kB time=00:18:13.18 bitrate= 247.4kbits/s dup=1 drop=0 speed=6.98x    frame=26296 fps=167 q=32.0 size=   33088kB time=00:18:16.93 bitrate= 247.1kbits/s dup=1 drop=0 speed=6.98x    frame=26356 fps=167 q=32.0 size=   33163kB time=00:18:19.41 bitrate= 247.1kbits/s dup=1 drop=0 speed=6.97x    frame=26429 fps=167 q=32.0 size=   33281kB time=00:18:22.44 bitrate= 247.3kbits/s dup=1 drop=0 speed=6.97x    frame=26537 fps=167 q=32.0 size=   33355kB time=00:18:26.96 bitrate= 246.8kbits/s dup=1 drop=0 speed=6.97x    frame=26660 fps=167 q=32.0 size=   33442kB time=00:18:32.12 bitrate= 246.3kbits/s dup=1 drop=0 speed=6.99x    frame=26768 fps=168 q=32.0 size=   33525kB time=00:18:36.60 bitrate= 246.0kbits/s dup=1 drop=0 speed=6.99x    frame=26823 fps=167 q=32.0 size=   33618kB time=00:18:38.91 bitrate= 246.1kbits/s dup=1 drop=0 speed=6.98x    frame=26914 fps=167 q=32.0 size=   33724kB time=00:18:42.71 bitrate= 246.1kbits/s dup=1 drop=0 speed=6.99x    frame=26980 fps=167 q=32.0 size=   33820kB time=00:18:45.44 bitrate= 246.2kbits/s dup=1 drop=0 speed=6.98x    frame=27071 fps=167 q=32.0 size=   33899kB time=00:18:49.23 bitrate= 245.9kbits/s dup=1 drop=0 speed=6.98x    frame=27121 fps=167 q=32.0 size=   33998kB time=00:18:51.32 bitrate= 246.2kbits/s dup=1 drop=0 speed=6.97x    frame=27150 fps=167 q=32.0 size=   34083kB time=00:18:52.52 bitrate= 246.5kbits/s dup=1 drop=0 speed=6.96x    frame=27177 fps=166 q=32.0 size=   34159kB time=00:18:53.67 bitrate= 246.8kbits/s dup=1 drop=0 speed=6.94x    frame=27209 fps=166 q=32.0 size=   34263kB time=00:18:54.99 bitrate= 247.3kbits/s dup=1 drop=0 speed=6.93x    frame=27256 fps=166 q=32.0 size=   34379kB time=00:18:56.96 bitrate= 247.7kbits/s dup=1 drop=0 speed=6.92x    frame=27314 fps=166 q=32.0 size=   34493kB time=00:18:59.39 bitrate= 248.0kbits/s dup=1 drop=0 speed=6.91x    frame=27405 fps=166 q=32.0 size=   34634kB time=00:19:03.14 bitrate= 248.2kbits/s dup=1 drop=0 speed=6.91x    frame=27515 fps=166 q=32.0 size=   34723kB time=00:19:07.75 bitrate= 247.8kbits/s dup=1 drop=0 speed=6.92x    frame=27621 fps=166 q=32.0 size=   34835kB time=00:19:12.19 bitrate= 247.7kbits/s dup=1 drop=0 speed=6.92x    frame=27737 fps=166 q=32.0 size=   34935kB time=00:19:17.05 bitrate= 247.3kbits/s dup=1 drop=0 speed=6.93x    frame=27822 fps=166 q=32.0 size=   35015kB time=00:19:20.55 bitrate= 247.2kbits/s dup=1 drop=0 speed=6.93x    frame=27930 fps=166 q=32.0 size=   35122kB time=00:19:25.07 bitrate= 247.0kbits/s dup=1 drop=0 speed=6.94x    frame=28023 fps=166 q=32.0 size=   35199kB time=00:19:28.96 bitrate= 246.7kbits/s dup=1 drop=0 speed=6.94x    frame=28117 fps=166 q=32.0 size=   35261kB time=00:19:32.88 bitrate= 246.3kbits/s dup=1 drop=0 speed=6.94x    frame=28186 fps=166 q=32.0 size=   35366kB time=00:19:35.74 bitrate= 246.4kbits/s dup=1 drop=0 speed=6.94x    frame=28256 fps=166 q=32.0 size=   35468kB time=00:19:38.64 bitrate= 246.5kbits/s dup=1 drop=0 speed=6.93x    frame=28345 fps=166 q=32.0 size=   35543kB time=00:19:42.35 bitrate= 246.3kbits/s dup=1 drop=0 speed=6.94x    frame=28445 fps=166 q=32.0 size=   35628kB time=00:19:46.53 bitrate= 246.0kbits/s dup=1 drop=0 speed=6.94x    frame=28539 fps=166 q=32.0 size=   35733kB time=00:19:50.46 bitrate= 245.9kbits/s dup=1 drop=0 speed=6.94x    frame=28646 fps=167 q=32.0 size=   35825kB time=00:19:54.94 bitrate= 245.6kbits/s dup=1 drop=0 speed=6.95x    frame=28755 fps=167 q=32.0 size=   35906kB time=00:19:59.46 bitrate= 245.2kbits/s dup=1 drop=0 speed=6.95x    frame=28860 fps=167 q=32.0 size=   36007kB time=00:20:03.86 bitrate= 245.0kbits/s dup=1 drop=0 speed=6.96x    frame=28953 fps=167 q=32.0 size=   36057kB time=00:20:07.74 bitrate= 244.6kbits/s dup=1 drop=0 speed=6.96x    frame=29015 fps=167 q=32.0 size=   36137kB time=00:20:10.30 bitrate= 244.6kbits/s dup=1 drop=0 speed=6.96x    frame=29062 fps=167 q=32.0 size=   36266kB time=00:20:12.26 bitrate= 245.1kbits/s dup=1 drop=0 speed=6.95x    frame=29095 fps=166 q=32.0 size=   36390kB time=00:20:13.67 bitrate= 245.6kbits/s dup=1 drop=0 speed=6.93x    frame=29157 fps=166 q=32.0 size=   36484kB time=00:20:16.23 bitrate= 245.7kbits/s dup=1 drop=0 speed=6.93x    frame=29252 fps=166 q=32.0 size=   36576kB time=00:20:20.20 bitrate= 245.6kbits/s dup=1 drop=0 speed=6.93x    frame=29319 fps=166 q=32.0 size=   36680kB time=00:20:23.01 bitrate= 245.7kbits/s dup=1 drop=0 speed=6.93x    frame=29386 fps=166 q=32.0 size=   36776kB time=00:20:25.79 bitrate= 245.8kbits/s dup=1 drop=0 speed=6.92x    frame=29446 fps=166 q=32.0 size=   36877kB time=00:20:28.31 bitrate= 245.9kbits/s dup=1 drop=0 speed=6.92x    frame=29510 fps=166 q=32.0 size=   36995kB time=00:20:30.99 bitrate= 246.2kbits/s dup=1 drop=0 speed=6.91x    frame=29570 fps=166 q=32.0 size=   37113kB time=00:20:33.47 bitrate= 246.5kbits/s dup=1 drop=0 speed=6.91x    frame=29622 fps=165 q=32.0 size=   37268kB time=00:20:35.64 bitrate= 247.1kbits/s dup=1 drop=0 speed= 6.9x    frame=29685 fps=165 q=32.0 size=   37365kB time=00:20:38.29 bitrate= 247.2kbits/s dup=1 drop=0 speed=6.89x    frame=29771 fps=165 q=32.0 size=   37478kB time=00:20:41.83 bitrate= 247.2kbits/s dup=1 drop=0 speed=6.89x    frame=29872 fps=165 q=32.0 size=   37541kB time=00:20:46.05 bitrate= 246.8kbits/s dup=1 drop=0 speed= 6.9x    frame=29970 fps=165 q=32.0 size=   37679kB time=00:20:50.15 bitrate= 246.9kbits/s dup=1 drop=0 speed= 6.9x    frame=30044 fps=165 q=32.0 size=   37767kB time=00:20:53.27 bitrate= 246.9kbits/s dup=1 drop=0 speed= 6.9x    frame=30106 fps=165 q=32.0 size=   37852kB time=00:20:55.83 bitrate= 246.9kbits/s dup=1 drop=0 speed= 6.9x    frame=30140 fps=165 q=32.0 size=   37959kB time=00:20:57.28 bitrate= 247.3kbits/s dup=1 drop=0 speed=6.88x    frame=30176 fps=165 q=32.0 size=   38084kB time=00:20:58.73 bitrate= 247.9kbits/s dup=1 drop=0 speed=6.87x    frame=30227 fps=165 q=32.0 size=   38218kB time=00:21:00.90 bitrate= 248.3kbits/s dup=1 drop=0 speed=6.86x    frame=30264 fps=164 q=32.0 size=   38332kB time=00:21:02.44 bitrate= 248.7kbits/s dup=1 drop=0 speed=6.85x    frame=30299 fps=164 q=32.0 size=   38465kB time=00:21:03.89 bitrate= 249.3kbits/s dup=1 drop=0 speed=6.84x    frame=30335 fps=164 q=32.0 size=   38570kB time=00:21:05.38 bitrate= 249.7kbits/s dup=1 drop=0 speed=6.83x    frame=30361 fps=163 q=32.0 size=   38724kB time=00:21:06.45 bitrate= 250.5kbits/s dup=1 drop=0 speed=6.82x    frame=30390 fps=163 q=32.0 size=   38838kB time=00:21:07.69 bitrate= 251.0kbits/s dup=1 drop=0 speed=6.81x    frame=30457 fps=163 q=32.0 size=   38972kB time=00:21:10.50 bitrate= 251.3kbits/s dup=1 drop=0 speed= 6.8x    frame=30535 fps=163 q=32.0 size=   39069kB time=00:21:13.70 bitrate= 251.3kbits/s dup=1 drop=0 speed= 6.8x    frame=30599 fps=163 q=32.0 size=   39150kB time=00:21:16.39 bitrate= 251.3kbits/s dup=1 drop=0 speed= 6.8x    frame=30675 fps=163 q=32.0 size=   39257kB time=00:21:19.55 bitrate= 251.3kbits/s dup=1 drop=0 speed= 6.8x    frame=30742 fps=163 q=32.0 size=   39347kB time=00:21:22.36 bitrate= 251.4kbits/s dup=1 drop=0 speed=6.79x    frame=30807 fps=163 q=32.0 size=   39466kB time=00:21:25.09 bitrate= 251.6kbits/s dup=1 drop=0 speed=6.79x    frame=30881 fps=163 q=32.0 size=   39586kB time=00:21:28.12 bitrate= 251.8kbits/s dup=1 drop=0 speed=6.79x    frame=30949 fps=163 q=32.0 size=   39672kB time=00:21:30.98 bitrate= 251.7kbits/s dup=1 drop=0 speed=6.78x    frame=31000 fps=162 q=32.0 size=   39743kB time=00:21:33.16 bitrate= 251.8kbits/s dup=1 drop=0 speed=6.78x    frame=31056 fps=162 q=32.0 size=   39820kB time=00:21:35.42 bitrate= 251.8kbits/s dup=1 drop=0 speed=6.77x    frame=31132 fps=162 q=32.0 size=   39914kB time=00:21:38.62 bitrate= 251.8kbits/s dup=1 drop=0 speed=6.77x    frame=31188 fps=162 q=32.0 size=   40002kB time=00:21:40.97 bitrate= 251.9kbits/s dup=1 drop=0 speed=6.76x    frame=31246 fps=162 q=32.0 size=   40128kB time=00:21:43.36 bitrate= 252.2kbits/s dup=1 drop=0 speed=6.76x    frame=31286 fps=162 q=32.0 size=   40232kB time=00:21:45.06 bitrate= 252.5kbits/s dup=1 drop=0 speed=6.75x    frame=31328 fps=162 q=32.0 size=   40334kB time=00:21:46.81 bitrate= 252.8kbits/s dup=1 drop=0 speed=6.74x    frame=31370 fps=161 q=32.0 size=   40436kB time=00:21:48.56 bitrate= 253.1kbits/s dup=1 drop=0 speed=6.73x    frame=31417 fps=161 q=32.0 size=   40539kB time=00:21:50.52 bitrate= 253.4kbits/s dup=1 drop=0 speed=6.72x    frame=31454 fps=161 q=32.0 size=   40622kB time=00:21:52.06 bitrate= 253.6kbits/s dup=1 drop=0 speed=6.71x    frame=31505 fps=161 q=32.0 size=   40756kB time=00:21:54.19 bitrate= 254.0kbits/s dup=1 drop=0 speed=6.71x    frame=31548 fps=161 q=32.0 size=   40867kB time=00:21:55.94 bitrate= 254.4kbits/s dup=1 drop=0 speed= 6.7x    frame=31572 fps=160 q=32.0 size=   40971kB time=00:21:56.97 bitrate= 254.9kbits/s dup=1 drop=0 speed=6.69x    frame=31595 fps=160 q=32.0 size=   41058kB time=00:21:57.95 bitrate= 255.2kbits/s dup=1 drop=0 speed=6.67x    frame=31644 fps=160 q=32.0 size=   41200kB time=00:21:59.95 bitrate= 255.7kbits/s dup=1 drop=0 speed=6.67x    frame=31699 fps=159 q=32.0 size=   41282kB time=00:22:02.26 bitrate= 255.8kbits/s dup=1 drop=0 speed=6.65x    frame=31774 fps=159 q=32.0 size=   41459kB time=00:22:05.41 bitrate= 256.2kbits/s dup=1 drop=0 speed=6.65x    frame=31872 fps=160 q=32.0 size=   41627kB time=00:22:09.47 bitrate= 256.5kbits/s dup=1 drop=0 speed=6.65x    frame=31950 fps=160 q=32.0 size=   41784kB time=00:22:12.75 bitrate= 256.8kbits/s dup=1 drop=0 speed=6.65x    frame=32007 fps=159 q=32.0 size=   41998kB time=00:22:15.10 bitrate= 257.7kbits/s dup=1 drop=0 speed=6.65x    frame=32078 fps=159 q=32.0 size=   42188kB time=00:22:18.09 bitrate= 258.3kbits/s dup=1 drop=0 speed=6.65x    frame=32139 fps=159 q=32.0 size=   42378kB time=00:22:20.60 bitrate= 259.0kbits/s dup=1 drop=0 speed=6.64x    frame=32188 fps=159 q=32.0 size=   42621kB time=00:22:22.65 bitrate= 260.0kbits/s dup=1 drop=0 speed=6.64x    frame=32290 fps=159 q=32.0 size=   42811kB time=00:22:26.92 bitrate= 260.4kbits/s dup=1 drop=0 speed=6.64x    frame=32380 fps=159 q=32.0 size=   42970kB time=00:22:30.67 bitrate= 260.6kbits/s dup=1 drop=0 speed=6.64x    frame=32461 fps=159 q=32.0 size=   43172kB time=00:22:34.04 bitrate= 261.2kbits/s dup=1 drop=0 speed=6.64x    frame=32551 fps=159 q=32.0 size=   43369kB time=00:22:37.80 bitrate= 261.7kbits/s dup=1 drop=0 speed=6.64x    frame=32615 fps=159 q=32.0 size=   43570kB time=00:22:40.49 bitrate= 262.4kbits/s dup=1 drop=0 speed=6.64x    frame=32689 fps=159 q=32.0 size=   43721kB time=00:22:43.56 bitrate= 262.7kbits/s dup=1 drop=0 speed=6.64x    frame=32741 fps=159 q=32.0 size=   43902kB time=00:22:45.73 bitrate= 263.3kbits/s dup=1 drop=0 speed=6.63x    frame=32822 fps=159 q=32.0 size=   44122kB time=00:22:49.11 bitrate= 264.0kbits/s dup=1 drop=0 speed=6.63x    frame=32926 fps=159 q=32.0 size=   44275kB time=00:22:53.46 bitrate= 264.1kbits/s dup=1 drop=0 speed=6.64x    frame=33021 fps=159 q=32.0 size=   44413kB time=00:22:57.38 bitrate= 264.1kbits/s dup=1 drop=0 speed=6.64x    frame=33103 fps=159 q=32.0 size=   44544kB time=00:23:00.84 bitrate= 264.3kbits/s dup=1 drop=0 speed=6.64x    frame=33245 fps=160 q=32.0 size=   44681kB time=00:23:06.73 bitrate= 263.9kbits/s dup=1 drop=0 speed=6.65x    frame=33353 fps=160 q=32.0 size=   44849kB time=00:23:11.25 bitrate= 264.1kbits/s dup=1 drop=0 speed=6.66x    frame=33472 fps=160 q=32.0 size=   44996kB time=00:23:16.20 bitrate= 264.0kbits/s dup=1 drop=0 speed=6.67x    frame=33609 fps=160 q=32.0 size=   45095kB time=00:23:21.96 bitrate= 263.5kbits/s dup=1 drop=0 speed=6.68x    frame=33728 fps=160 q=32.0 size=   45225kB time=00:23:26.91 bitrate= 263.3kbits/s dup=1 drop=0 speed=6.69x    frame=33836 fps=160 q=32.0 size=   45324kB time=00:23:31.39 bitrate= 263.1kbits/s dup=1 drop=0 speed=6.69x    frame=33930 fps=160 q=32.0 size=   45446kB time=00:23:35.31 bitrate= 263.0kbits/s dup=1 drop=0 speed=6.69x    frame=34015 fps=160 q=32.0 size=   45549kB time=00:23:38.85 bitrate= 263.0kbits/s dup=1 drop=0 speed=6.69x    frame=34102 fps=160 q=32.0 size=   45696kB time=00:23:42.48 bitrate= 263.2kbits/s dup=1 drop=0 speed=6.69x    frame=34226 fps=161 q=32.0 size=   45796kB time=00:23:47.64 bitrate= 262.8kbits/s dup=1 drop=0 speed= 6.7x    frame=34301 fps=161 q=32.0 size=   45915kB time=00:23:50.80 bitrate= 262.9kbits/s dup=1 drop=0 speed= 6.7x    frame=34347 fps=160 q=32.0 size=   45988kB time=00:23:52.68 bitrate= 263.0kbits/s dup=1 drop=0 speed=6.69x    frame=34466 fps=161 q=32.0 size=   46100kB time=00:23:57.67 bitrate= 262.7kbits/s dup=1 drop=0 speed= 6.7x    frame=34551 fps=161 q=32.0 size=   46259kB time=00:24:01.21 bitrate= 262.9kbits/s dup=1 drop=0 speed= 6.7x    frame=34618 fps=161 q=32.0 size=   46430kB time=00:24:03.99 bitrate= 263.4kbits/s dup=1 drop=0 speed= 6.7x    frame=34674 fps=160 q=32.0 size=   46550kB time=00:24:06.37 bitrate= 263.6kbits/s dup=1 drop=0 speed=6.69x    frame=34734 fps=160 q=32.0 size=   46698kB time=00:24:08.85 bitrate= 264.0kbits/s dup=1 drop=0 speed=6.69x    frame=34871 fps=161 q=32.0 size=   46881kB time=00:24:14.57 bitrate= 264.0kbits/s dup=1 drop=0 speed= 6.7x    frame=35004 fps=161 q=32.0 size=   47023kB time=00:24:20.11 bitrate= 263.8kbits/s dup=1 drop=0 speed=6.71x    frame=35143 fps=161 q=32.0 size=   47171kB time=00:24:25.96 bitrate= 263.6kbits/s dup=1 drop=0 speed=6.72x    [mp4 @ 0x39971e0] Starting second pass: moving the moov atom to the beginning of the file
frame=35202 fps=161 q=-1.0 Lsize=   48094kB time=00:24:28.18 bitrate= 268.4kbits/s dup=1 drop=0 speed=6.72x    
video:37859kB audio:9401kB subtitle:0kB other streams:0kB global headers:0kB muxing overhead: 1.765809%
[libx264 @ 0x3a0a620] frame I:289   Avg QP:22.01  size: 17130
[libx264 @ 0x3a0a620] frame P:10691 Avg QP:24.15  size:  2416
[libx264 @ 0x3a0a620] frame B:24222 Avg QP:31.74  size:   330
[libx264 @ 0x3a0a620] consecutive B-frames:  2.6% 15.7%  3.4% 78.2%
[libx264 @ 0x3a0a620] mb I  I16..4: 26.8% 53.8% 19.5%
[libx264 @ 0x3a0a620] mb P  I16..4:  5.4%  4.9%  1.2%  P16..4: 26.6%  3.8%  3.4%  0.1%  0.0%    skip:54.7%
[libx264 @ 0x3a0a620] mb B  I16..4:  0.4%  0.4%  0.1%  B16..8: 11.5%  0.9%  0.1%  direct: 0.3%  skip:86.4%  L0:41.5% L1:56.6% BI: 1.9%
[libx264 @ 0x3a0a620] 8x8 transform intra:45.0% inter:65.3%
[libx264 @ 0x3a0a620] coded y,uvDC,uvAC intra: 32.8% 59.9% 10.8% inter: 1.5% 3.6% 0.0%
[libx264 @ 0x3a0a620] i16 v,h,dc,p: 41% 32% 20%  7%
[libx264 @ 0x3a0a620] i8 v,h,dc,ddl,ddr,vr,hd,vl,hu: 21% 20% 38%  4%  3%  3%  3%  4%  4%
[libx264 @ 0x3a0a620] i4 v,h,dc,ddl,ddr,vr,hd,vl,hu: 29% 19% 20%  5%  5%  6%  6%  5%  4%
[libx264 @ 0x3a0a620] i8c dc,h,v,p: 43% 27% 25%  6%
[libx264 @ 0x3a0a620] Weighted P-Frames: Y:1.7% UV:1.2%
[libx264 @ 0x3a0a620] ref P L0: 64.5% 11.0% 10.4%  3.9%  2.9%  2.7%  2.4%  2.0%  0.3%  0.0%
[libx264 @ 0x3a0a620] ref B L0: 83.2%  6.4%  4.1%  2.0%  1.6%  1.6%  1.0%
[libx264 @ 0x3a0a620] ref B L1: 96.9%  3.1%
[libx264 @ 0x3a0a620] kb/s:211.23
